<svg viewBox="0 0 20 20" xmlns="http://www.w3.org/2000/svg">
<path d="M16.5103 10.5226L8.04881 19.8232C7.85312 20.0385 7.58452 20.1645 7.2926 20.1781C7.00068 20.1916 6.72174 20.091 6.50726 19.8947L5.82438 19.2705C5.38 18.8638 5.34837 18.1707 5.75385 17.7251L12.8591 9.91505L5.0638 2.78805C4.84932 2.5918 4.72357 2.32276 4.71022 2.03028C4.69685 1.73747 4.79757 1.45792 4.99326 1.24248L5.6164 0.557867C5.81225 0.342583 6.08069 0.216532 6.37261 0.202987C6.66452 0.189442 6.94347 0.290095 7.15795 0.48634L16.4395 8.97182C16.6545 9.16869 16.78 9.43905 16.7927 9.73205C16.8068 10.0261 16.7064 10.3068 16.5103 10.5226Z" fill="#595555"/>
</svg>
